<mxfile host="app.diagrams.net" agent="Mozilla/5.0 (Macintosh; Intel Mac OS X 10_15_7) AppleWebKit/605.1.15 (KHTML, like Gecko) Version/17.6 Safari/605.1.15" version="24.7.7">
  <diagram name="Page-1" id="TQ7bjMCXVBWS2DCVit-a">
    <mxGraphModel dx="1850" dy="666" grid="1" gridSize="10" guides="1" tooltips="1" connect="1" arrows="1" fold="1" page="1" pageScale="1" pageWidth="850" pageHeight="1100" math="0" shadow="0">
      <root>
        <mxCell id="0" />
        <mxCell id="1" parent="0" />
        <mxCell id="QFtUhqqSwb2MpGJyBlG2-1" value="" style="swimlane;startSize=0;fillColor=none;" vertex="1" parent="1">
          <mxGeometry x="-400" y="90" width="1170" height="430" as="geometry" />
        </mxCell>
        <mxCell id="QFtUhqqSwb2MpGJyBlG2-2" value="&lt;font color=&quot;#f5f5f5&quot;&gt;LLM&lt;/font&gt;" style="ellipse;whiteSpace=wrap;html=1;fillColor=#000000;strokeColor=default;" vertex="1" parent="QFtUhqqSwb2MpGJyBlG2-1">
          <mxGeometry x="150" y="90" width="120" height="120" as="geometry" />
        </mxCell>
        <mxCell id="QFtUhqqSwb2MpGJyBlG2-4" value="&lt;font color=&quot;#fafafa&quot;&gt;Database Schema&lt;/font&gt;" style="rounded=1;whiteSpace=wrap;html=1;fillColor=#0A0A0A;" vertex="1" parent="QFtUhqqSwb2MpGJyBlG2-1">
          <mxGeometry x="150" y="300" width="120" height="70" as="geometry" />
        </mxCell>
        <mxCell id="QFtUhqqSwb2MpGJyBlG2-6" style="edgeStyle=orthogonalEdgeStyle;rounded=0;orthogonalLoop=1;jettySize=auto;html=1;exitX=0.5;exitY=1;exitDx=0;exitDy=0;" edge="1" parent="QFtUhqqSwb2MpGJyBlG2-1">
          <mxGeometry relative="1" as="geometry">
            <mxPoint x="410" y="750" as="sourcePoint" />
            <mxPoint x="410" y="750" as="targetPoint" />
          </mxGeometry>
        </mxCell>
        <mxCell id="QFtUhqqSwb2MpGJyBlG2-10" value="" style="shape=singleArrow;direction=north;whiteSpace=wrap;html=1;" vertex="1" parent="QFtUhqqSwb2MpGJyBlG2-1">
          <mxGeometry x="187.5" y="220" width="45" height="80" as="geometry" />
        </mxCell>
        <mxCell id="QFtUhqqSwb2MpGJyBlG2-11" value="&lt;font color=&quot;#f7f7f7&quot;&gt;SQL Chain&lt;/font&gt;" style="rounded=1;whiteSpace=wrap;html=1;strokeColor=#030303;fillColor=#000000;" vertex="1" parent="QFtUhqqSwb2MpGJyBlG2-1">
          <mxGeometry x="260" y="60" width="110" height="30" as="geometry" />
        </mxCell>
        <mxCell id="QFtUhqqSwb2MpGJyBlG2-14" value="" style="shape=singleArrow;whiteSpace=wrap;html=1;" vertex="1" parent="QFtUhqqSwb2MpGJyBlG2-1">
          <mxGeometry x="270" y="140" width="120" height="40" as="geometry" />
        </mxCell>
        <mxCell id="QFtUhqqSwb2MpGJyBlG2-16" value="&lt;font color=&quot;#fafafa&quot;&gt;SQL Query&lt;/font&gt;" style="rounded=1;whiteSpace=wrap;html=1;fillColor=#000000;" vertex="1" parent="QFtUhqqSwb2MpGJyBlG2-1">
          <mxGeometry x="400" y="140" width="90" height="40" as="geometry" />
        </mxCell>
        <mxCell id="QFtUhqqSwb2MpGJyBlG2-17" value="" style="shape=singleArrow;whiteSpace=wrap;html=1;" vertex="1" parent="QFtUhqqSwb2MpGJyBlG2-1">
          <mxGeometry x="490" y="140" width="70" height="40" as="geometry" />
        </mxCell>
        <mxCell id="QFtUhqqSwb2MpGJyBlG2-19" value="&lt;font color=&quot;#f5f5f5&quot;&gt;Run Query&lt;/font&gt;" style="rounded=1;whiteSpace=wrap;html=1;strokeColor=#050505;fillColor=#000000;" vertex="1" parent="QFtUhqqSwb2MpGJyBlG2-1">
          <mxGeometry x="560" y="130" width="120" height="60" as="geometry" />
        </mxCell>
        <mxCell id="QFtUhqqSwb2MpGJyBlG2-22" value="" style="shape=singleArrow;whiteSpace=wrap;html=1;" vertex="1" parent="QFtUhqqSwb2MpGJyBlG2-1">
          <mxGeometry x="680" y="140" width="90" height="40" as="geometry" />
        </mxCell>
        <mxCell id="QFtUhqqSwb2MpGJyBlG2-25" value="&lt;font color=&quot;#fcfcfc&quot;&gt;LLM&lt;/font&gt;" style="ellipse;whiteSpace=wrap;html=1;aspect=fixed;fillColor=#080808;" vertex="1" parent="QFtUhqqSwb2MpGJyBlG2-1">
          <mxGeometry x="770" y="120" width="80" height="80" as="geometry" />
        </mxCell>
        <mxCell id="QFtUhqqSwb2MpGJyBlG2-29" value="" style="line;strokeWidth=1;rotatable=0;dashed=0;labelPosition=right;align=left;verticalAlign=middle;spacingTop=0;spacingLeft=6;points=[];portConstraint=eastwest;" vertex="1" parent="QFtUhqqSwb2MpGJyBlG2-1">
          <mxGeometry x="130" y="390" width="270" height="10" as="geometry" />
        </mxCell>
        <mxCell id="QFtUhqqSwb2MpGJyBlG2-30" value="" style="line;strokeWidth=1;rotatable=0;dashed=0;labelPosition=right;align=left;verticalAlign=middle;spacingTop=0;spacingLeft=6;points=[];portConstraint=eastwest;" vertex="1" parent="QFtUhqqSwb2MpGJyBlG2-1">
          <mxGeometry x="130" y="30" width="270" height="10" as="geometry" />
        </mxCell>
        <mxCell id="QFtUhqqSwb2MpGJyBlG2-32" value="" style="line;strokeWidth=2;direction=south;html=1;" vertex="1" parent="QFtUhqqSwb2MpGJyBlG2-1">
          <mxGeometry x="390" y="30" width="10" height="370" as="geometry" />
        </mxCell>
        <mxCell id="QFtUhqqSwb2MpGJyBlG2-38" value="" style="line;strokeWidth=2;direction=south;html=1;" vertex="1" parent="QFtUhqqSwb2MpGJyBlG2-1">
          <mxGeometry x="130" y="30" width="10" height="370" as="geometry" />
        </mxCell>
        <mxCell id="QFtUhqqSwb2MpGJyBlG2-41" value="" style="shape=singleArrow;whiteSpace=wrap;html=1;" vertex="1" parent="QFtUhqqSwb2MpGJyBlG2-1">
          <mxGeometry x="-25" y="190" width="105" height="40" as="geometry" />
        </mxCell>
        <mxCell id="QFtUhqqSwb2MpGJyBlG2-42" style="edgeStyle=orthogonalEdgeStyle;rounded=0;orthogonalLoop=1;jettySize=auto;html=1;exitX=0;exitY=0;exitDx=48;exitDy=14;exitPerimeter=0;entryX=0.133;entryY=0.325;entryDx=0;entryDy=0;entryPerimeter=0;" edge="1" parent="QFtUhqqSwb2MpGJyBlG2-1" source="QFtUhqqSwb2MpGJyBlG2-41" target="QFtUhqqSwb2MpGJyBlG2-41">
          <mxGeometry relative="1" as="geometry" />
        </mxCell>
        <mxCell id="QFtUhqqSwb2MpGJyBlG2-45" value="&lt;font color=&quot;#ffffff&quot;&gt;Full Chain&lt;/font&gt;" style="rounded=0;whiteSpace=wrap;html=1;fillColor=#0A0A0A;" vertex="1" parent="QFtUhqqSwb2MpGJyBlG2-1">
          <mxGeometry x="760" y="40" width="120" height="60" as="geometry" />
        </mxCell>
        <mxCell id="QFtUhqqSwb2MpGJyBlG2-46" value="" style="shape=singleArrow;whiteSpace=wrap;html=1;" vertex="1" parent="QFtUhqqSwb2MpGJyBlG2-1">
          <mxGeometry x="850" y="130" width="100" height="60" as="geometry" />
        </mxCell>
        <mxCell id="QFtUhqqSwb2MpGJyBlG2-47" value="&lt;font color=&quot;#f2f2f2&quot;&gt;Natural Language Answer&amp;nbsp;&lt;/font&gt;" style="rounded=1;whiteSpace=wrap;html=1;fillColor=#050505;strokeColor=default;" vertex="1" parent="QFtUhqqSwb2MpGJyBlG2-1">
          <mxGeometry x="950" y="130" width="200" height="60" as="geometry" />
        </mxCell>
        <mxCell id="QFtUhqqSwb2MpGJyBlG2-12" value="" style="rounded=1;whiteSpace=wrap;html=1;fillColor=none;" vertex="1" parent="QFtUhqqSwb2MpGJyBlG2-1">
          <mxGeometry x="80" y="7.5" width="820" height="415" as="geometry" />
        </mxCell>
        <mxCell id="QFtUhqqSwb2MpGJyBlG2-39" value="&lt;font color=&quot;#ffffff&quot;&gt;User Question&lt;/font&gt;" style="rounded=1;whiteSpace=wrap;html=1;fillColor=#000000;" vertex="1" parent="1">
          <mxGeometry x="-545" y="270" width="120" height="60" as="geometry" />
        </mxCell>
      </root>
    </mxGraphModel>
  </diagram>
</mxfile>
